<svg id="Calque_1" data-name="Calque 1" 
    xmlns="http://www.w3.org/2000/svg" viewBox="0 0 100 100">
    <defs>
        <style>.cls-1{fill:rgba(255,255,255,0.1);stroke:orange;stroke-miterlimit:10;}</style>
    </defs>
    <title>Logo Phi</title>
    <rect class="cls-1" width="100" height="100"/>
    <path fill="white" d="M51,53.33a163.91,163.91,0,0,0,1.43,22.85l-3.71-2V26.14L54,23.82C52.25,28.05,51,41,51,53.33Z"/>
    <path fill="white" d="M52.08,38.38c0,.67-.07,1.33-.1,2a10,10,0,0,1-.07,19.52l.09,2c8-.72,14.14-5.71,14.14-11.75S60,39.13,52.08,38.38ZM33.86,50.12c0,6.08,6.26,11.09,14.3,11.76v-2a10,10,0,0,1,0-19.56v-2C40.12,39,33.86,44,33.86,50.12Z"/>
    <path fill="white" d="M72.76,14.16a41.17,41.17,0,0,0-.88,6.22c0,.68,0,1.33,0,1.95h-2V14.6Z"/>
</svg>